<?xml version="1.0" encoding="iso-8859-1"?>

<svg fill="currentColor" height="800px" width="800px" version="1.1" id="Layer_1" xmlns="http://www.w3.org/2000/svg" xmlns:xlink="http://www.w3.org/1999/xlink" 
	 viewBox="0 0 512 512" xml:space="preserve">
<g>
	<g>
		<path d="M502.514,15.297l-1.041-4.774l-4.774-1.041c-28.67-6.254-58.115-9.424-87.517-9.424c-27.091,0-54.269,2.701-80.796,8.02
			h-0.936l-0.711,0.329l-13.024,2.638l0.213,0.212c-73.428,17.493-140.278,54.857-194.048,108.626
			c-53.77,53.77-91.131,120.62-108.624,194.051l-0.213-0.214L8.48,326.38l-0.081,0.138l-0.185,1.15l-0.89,3.86l0.117,0.117
			C-3.12,386.538-2.44,442.047,9.483,496.7l1.041,4.773l4.774,1.041c28.679,6.256,58.131,9.427,87.538,9.428
			c0.003,0,0.003,0,0.006,0c25.975,0,52.033-2.485,77.517-7.38l0.021,0.021l4.004-0.81c0.01-0.002,0.021-0.004,0.031-0.006
			l13.868-2.809l-0.209-0.209c73.433-17.495,140.279-54.862,194.047-108.629c53.768-53.77,91.135-120.616,108.629-194.046
			l0.209,0.209l2.809-13.868c0.002-0.01,0.004-0.021,0.006-0.031l0.81-4.004l-0.022-0.021
			C515.12,125.479,514.438,69.968,502.514,15.297z M479.631,21.602l-66.914,66.913l-67.959-67.958
			C389.315,13.216,435.244,13.586,479.631,21.602z M20.551,344.754l3.556,3.557l64.407,64.407l-66.92,66.92
			C13.462,434.893,13.111,389.644,20.551,344.754z M102.841,496.719c-0.002,0-0.004,0-0.006,0
			c-23.613-0.001-47.252-2.128-70.468-6.326l66.911-66.911l67.962,67.962C145.983,494.947,124.383,496.719,102.841,496.719z
			 M381.357,381.356c-54.005,54.005-121.7,90.831-196.007,106.668l-75.307-75.307l28.642-28.642l-10.764-10.764l-28.642,28.642
			l-75.302-75.301c15.835-74.301,52.661-141.999,106.668-196.006C184.653,76.64,252.349,39.813,326.65,23.978l75.303,75.302
			l-28.642,28.642l10.765,10.764l28.642-28.642l75.308,75.307C472.188,259.653,435.362,327.348,381.357,381.356z M491.451,167.249
			L423.482,99.28l66.921-66.921C498.536,77.118,498.889,122.368,491.451,167.249z"/>
	</g>
</g>
<g>
	<g>
		<polygon points="359.584,228.483 370.348,217.719 337.695,185.066 366.337,156.423 355.572,145.659 326.93,174.301 
			294.277,141.649 283.512,152.412 316.166,185.066 298.557,202.675 265.904,170.021 255.139,180.785 287.794,213.439 
			270.185,231.048 237.531,198.394 226.767,209.159 259.421,241.811 241.812,259.421 209.158,226.767 198.395,237.532 
			231.048,270.185 213.439,287.794 180.784,255.14 170.021,265.905 202.675,298.558 185.065,316.167 152.413,283.514 
			141.648,294.277 174.301,326.932 145.66,355.574 156.424,366.337 185.066,337.696 217.719,370.349 228.483,359.584 
			195.83,326.932 213.439,309.322 246.091,341.975 256.856,331.211 224.203,298.558 241.812,280.949 274.465,313.602 
			285.23,302.838 252.577,270.185 270.185,252.576 302.838,285.229 313.603,274.465 280.948,241.811 298.557,224.202 
			331.211,256.856 341.976,246.092 309.322,213.439 326.93,195.83 		"/>
	</g>
</g>
</svg>